<svg width="28" height="26" viewBox="0 0 28 26" fill="none" xmlns="http://www.w3.org/2000/svg">
<path d="M19.7587 0H19.6939C17.1137 0 14.8318 1.36533 13.5192 3.38003C12.2067 1.36533 9.92477 0 7.34457 0H7.27972C5.34336 0.018453 3.4925 0.800347 2.12939 2.17577C0.766276 3.55119 0.00105117 5.40898 0 7.34544C0 9.75011 1.05318 13.1621 3.10679 15.9697C7.01945 21.3195 13.5192 26 13.5192 26C13.5192 26 20.019 21.3204 23.9308 15.9697C25.9853 13.1621 27.0376 9.75011 27.0376 7.34544C27.0366 5.40913 26.2715 3.55146 24.9085 2.17607C23.5456 0.800673 21.695 0.0186794 19.7587 0ZM18.831 16.3813C18.5371 16.3802 18.2505 16.2903 18.0086 16.1233C17.7668 15.9563 17.5812 15.7201 17.476 15.4457H15.9334C15.8318 15.4451 15.733 15.4128 15.6507 15.3532C15.5684 15.2937 15.5067 15.21 15.4743 15.1137L15.0004 13.6861L13.5011 18.9252C13.4719 19.0261 13.4108 19.1147 13.3269 19.1779C13.243 19.241 13.1409 19.2752 13.0359 19.2754H13.0056C12.8961 19.2701 12.7916 19.2274 12.7098 19.1544C12.628 19.0813 12.5737 18.9824 12.556 18.8742L11.0108 9.58063L9.88154 15.08C9.85564 15.1845 9.7955 15.2772 9.71072 15.3435C9.62593 15.4098 9.52138 15.4458 9.41375 15.4457H7.24081C7.17567 15.4485 7.11065 15.438 7.04966 15.415C6.98866 15.392 6.93295 15.3569 6.88589 15.3118C6.83882 15.2666 6.80137 15.2125 6.77579 15.1525C6.7502 15.0925 6.73701 15.028 6.73701 14.9628C6.73701 14.8976 6.7502 14.8331 6.77579 14.7731C6.80137 14.7132 6.83882 14.659 6.88589 14.6139C6.93295 14.5688 6.98866 14.5336 7.04966 14.5106C7.11065 14.4876 7.17567 14.4771 7.24081 14.4799H9.03329L10.6329 7.08604C10.6592 6.97672 10.7226 6.87992 10.8123 6.81218C10.9021 6.74445 11.0125 6.70998 11.1249 6.71468C11.2372 6.71937 11.3444 6.76294 11.4282 6.83793C11.5119 6.91293 11.567 7.01468 11.5841 7.12581L13.1621 16.6061L14.5058 11.9187C14.5338 11.82 14.593 11.733 14.6745 11.6706C14.756 11.6083 14.8555 11.574 14.9581 11.5728H14.9676C15.0692 11.5729 15.1682 11.605 15.2505 11.6646C15.3328 11.7242 15.3942 11.8083 15.4258 11.9049L16.2827 14.4825H17.457C17.5405 14.2288 17.6924 14.0032 17.896 13.8305C18.0997 13.6577 18.3471 13.5446 18.6109 13.5036C18.8748 13.4626 19.1448 13.4952 19.3913 13.598C19.6378 13.7008 19.851 13.8697 20.0076 14.086C20.1641 14.3023 20.2578 14.5577 20.2784 14.8239C20.299 15.0902 20.2456 15.3569 20.1242 15.5947C20.0027 15.8325 19.8179 16.0322 19.5902 16.1716C19.3624 16.311 19.1006 16.3848 18.8335 16.3848L18.831 16.3813Z" fill="#F7F7F7"/>
</svg>
